<?xml version="1.0" encoding="utf-8"?>
<!-- Generator: Adobe Illustrator 15.0.0, SVG Export Plug-In . SVG Version: 6.00 Build 0)  -->
<!DOCTYPE svg PUBLIC "-//W3C//DTD SVG 1.1//EN" "http://www.w3.org/Graphics/SVG/1.1/DTD/svg11.dtd">
<svg version="1.1" xmlns="http://www.w3.org/2000/svg" xmlns:xlink="http://www.w3.org/1999/xlink" x="0px" y="0px" width="64px"
	 height="64px" viewBox="0 0 64 64" enable-background="new 0 0 64 64" xml:space="preserve">
<g id="Layer_1" display="none">
	<rect x="0.5" y="-0.5" display="inline" fill="#FFFFFF" stroke="#000000" stroke-miterlimit="10" width="63" height="65"/>
	
		<image display="inline" overflow="visible" width="1024" height="1024" xlink:href="../../../../../../Work/logos/linkedin-icon.png"  transform="matrix(0.0625 0 0 0.0625 0 0)">
	</image>
</g>
<g id="Layer_3">
</g>
<g id="Layer_2">
	<path fill="#3399CC" d="M0,0v64h64V0H0z M19,55H9V24h10V55z M14.417,18.5c-3.106,0-5.625-2.519-5.625-5.625
		s2.519-5.625,5.625-5.625s5.625,2.519,5.625,5.625S17.523,18.5,14.417,18.5z M57,39.5V55H47V39.5c0,0,0.563-8.406-5.947-8.25
		c0,0-5.553-0.688-6.053,7.583V55H25V24h10v3.208c0,0,2.479-4.208,10.125-4.208C45.209,23,56.917,23.5,57,34.422
		C57,34.422,57,35.292,57,39.5z"/>
</g>
</svg>
