<?xml version="1.0" encoding="utf-8"?>
<!-- Generator: Adobe Illustrator 15.0.0, SVG Export Plug-In . SVG Version: 6.00 Build 0)  -->
<!DOCTYPE svg PUBLIC "-//W3C//DTD SVG 1.1//EN" "http://www.w3.org/Graphics/SVG/1.1/DTD/svg11.dtd">
<svg version="1.1" id="Layer_1" xmlns="http://www.w3.org/2000/svg" xmlns:xlink="http://www.w3.org/1999/xlink" x="0px" y="0px"
	 width="64px" height="64px" viewBox="168 168 64 64" enable-background="new 168 168 64 64" xml:space="preserve">
<path fill="#00FFFF" d="M168,168v64h64v-64H168z M220.662,201.561c-3.51,13.484-16.629,17.573-25.873,17.848
	c-14.34,0.245-21.388-10.434-21.388-10.434s9.265,8.613,19.801-0.824c-3.275,0.306-5.878-2.522-1.872-4.596
	c-4.922,0.305-6.488-3.378-6.488-3.378s0.915-1.383,3.691-1.484c-5.989-1.342-5.989-5.471-5.989-5.471s1.038-0.265,3.091-0.427
	c-5.024-2.848-4.393-6.732-4.393-6.732s9.417,3.559,14.522,6.57c2.115,1.525,3.387,2.933,3.387,2.933s3.407-10.377,8.42-13.164
	c-0.012,0.397-0.6,1.342-0.6,1.342s1.932-1.556,4.037-1.8c0.047,0.977-2.033,1.892-2.033,1.892s3.732-1.673,4.402-0.773
	c0.839,1.236-4.525,2.33-4.525,2.33c10.037,0.366,11.686,10.464,11.686,10.464s3.494,1.038,6.314-0.183
	c-1.052,2.822-5.827,2.959-5.827,2.959s2.426,1.145,6.072,0.641C224.429,202.201,220.662,201.561,220.662,201.561z"/>
</svg>
